<mxfile host="app.diagrams.net" agent="Mozilla/5.0 (Macintosh; Intel Mac OS X 10_15_7) AppleWebKit/605.1.15 (KHTML, like Gecko) Version/17.6 Safari/605.1.15" version="25.0.3">
  <diagram name="Page-1" id="mczNdkTMnV72pdAcjK64">
    <mxGraphModel dx="855" dy="577" grid="1" gridSize="10" guides="1" tooltips="1" connect="1" arrows="1" fold="1" page="1" pageScale="1" pageWidth="827" pageHeight="1169" math="0" shadow="0">
      <root>
        <mxCell id="0" />
        <mxCell id="1" parent="0" />
        <mxCell id="ghZcPEIQTWjg8qfjNoku-1" value="Start/Stop" style="ellipse;whiteSpace=wrap;html=1;fillColor=#d5e8d4;strokeColor=#82b366;" vertex="1" parent="1">
          <mxGeometry x="670" y="160" width="120" height="80" as="geometry" />
        </mxCell>
        <mxCell id="ghZcPEIQTWjg8qfjNoku-2" value="Decision" style="rhombus;whiteSpace=wrap;html=1;fillColor=#e1d5e7;strokeColor=#9673a6;" vertex="1" parent="1">
          <mxGeometry x="690" y="260" width="80" height="80" as="geometry" />
        </mxCell>
        <mxCell id="ghZcPEIQTWjg8qfjNoku-6" style="edgeStyle=orthogonalEdgeStyle;rounded=0;orthogonalLoop=1;jettySize=auto;html=1;exitX=0.5;exitY=1;exitDx=0;exitDy=0;entryX=0.5;entryY=0;entryDx=0;entryDy=0;" edge="1" parent="1" source="ghZcPEIQTWjg8qfjNoku-7" target="ghZcPEIQTWjg8qfjNoku-5">
          <mxGeometry relative="1" as="geometry" />
        </mxCell>
        <mxCell id="ghZcPEIQTWjg8qfjNoku-31" style="edgeStyle=orthogonalEdgeStyle;rounded=0;orthogonalLoop=1;jettySize=auto;html=1;exitX=0.5;exitY=1;exitDx=0;exitDy=0;entryX=0.5;entryY=0;entryDx=0;entryDy=0;" edge="1" parent="1" source="ghZcPEIQTWjg8qfjNoku-4" target="ghZcPEIQTWjg8qfjNoku-25">
          <mxGeometry relative="1" as="geometry" />
        </mxCell>
        <mxCell id="ghZcPEIQTWjg8qfjNoku-4" value="Start" style="ellipse;whiteSpace=wrap;html=1;fillColor=#d5e8d4;strokeColor=#82b366;" vertex="1" parent="1">
          <mxGeometry x="354" y="110" width="120" height="80" as="geometry" />
        </mxCell>
        <mxCell id="ghZcPEIQTWjg8qfjNoku-33" value="" style="edgeStyle=orthogonalEdgeStyle;rounded=0;orthogonalLoop=1;jettySize=auto;html=1;" edge="1" parent="1" source="ghZcPEIQTWjg8qfjNoku-5" target="ghZcPEIQTWjg8qfjNoku-12">
          <mxGeometry relative="1" as="geometry" />
        </mxCell>
        <mxCell id="ghZcPEIQTWjg8qfjNoku-5" value="Add user&#39;s bid and name into dictionary as key and value" style="rounded=0;whiteSpace=wrap;html=1;fillColor=#dae8fc;strokeColor=#6c8ebf;" vertex="1" parent="1">
          <mxGeometry x="354" y="540" width="120" height="60" as="geometry" />
        </mxCell>
        <mxCell id="ghZcPEIQTWjg8qfjNoku-10" style="edgeStyle=orthogonalEdgeStyle;rounded=0;orthogonalLoop=1;jettySize=auto;html=1;exitX=0.5;exitY=1;exitDx=0;exitDy=0;entryX=0.5;entryY=0;entryDx=0;entryDy=0;" edge="1" parent="1" source="ghZcPEIQTWjg8qfjNoku-7" target="ghZcPEIQTWjg8qfjNoku-9">
          <mxGeometry relative="1" as="geometry" />
        </mxCell>
        <mxCell id="ghZcPEIQTWjg8qfjNoku-9" value="Prompt user for input of bid" style="rounded=0;whiteSpace=wrap;html=1;fillColor=#dae8fc;strokeColor=#6c8ebf;" vertex="1" parent="1">
          <mxGeometry x="354" y="430" width="120" height="60" as="geometry" />
        </mxCell>
        <mxCell id="ghZcPEIQTWjg8qfjNoku-14" style="edgeStyle=orthogonalEdgeStyle;rounded=0;orthogonalLoop=1;jettySize=auto;html=1;exitX=1;exitY=0.5;exitDx=0;exitDy=0;entryX=0;entryY=0.5;entryDx=0;entryDy=0;" edge="1" parent="1" source="ghZcPEIQTWjg8qfjNoku-12" target="ghZcPEIQTWjg8qfjNoku-23">
          <mxGeometry relative="1" as="geometry">
            <mxPoint x="530" y="660" as="targetPoint" />
          </mxGeometry>
        </mxCell>
        <mxCell id="ghZcPEIQTWjg8qfjNoku-17" style="edgeStyle=orthogonalEdgeStyle;rounded=0;orthogonalLoop=1;jettySize=auto;html=1;exitX=0;exitY=0.5;exitDx=0;exitDy=0;entryX=1;entryY=0.5;entryDx=0;entryDy=0;" edge="1" parent="1" source="ghZcPEIQTWjg8qfjNoku-12" target="ghZcPEIQTWjg8qfjNoku-16">
          <mxGeometry relative="1" as="geometry" />
        </mxCell>
        <mxCell id="ghZcPEIQTWjg8qfjNoku-12" value="Is there another person?" style="rhombus;whiteSpace=wrap;html=1;fillColor=#e1d5e7;strokeColor=#9673a6;" vertex="1" parent="1">
          <mxGeometry x="374" y="620" width="80" height="80" as="geometry" />
        </mxCell>
        <mxCell id="ghZcPEIQTWjg8qfjNoku-21" style="edgeStyle=orthogonalEdgeStyle;rounded=0;orthogonalLoop=1;jettySize=auto;html=1;exitX=0.5;exitY=1;exitDx=0;exitDy=0;entryX=0;entryY=0.5;entryDx=0;entryDy=0;" edge="1" parent="1" source="ghZcPEIQTWjg8qfjNoku-16" target="ghZcPEIQTWjg8qfjNoku-20">
          <mxGeometry relative="1" as="geometry" />
        </mxCell>
        <mxCell id="ghZcPEIQTWjg8qfjNoku-16" value="Output the highest bidder" style="rounded=0;whiteSpace=wrap;html=1;fillColor=#dae8fc;strokeColor=#6c8ebf;" vertex="1" parent="1">
          <mxGeometry x="190" y="630" width="120" height="60" as="geometry" />
        </mxCell>
        <mxCell id="ghZcPEIQTWjg8qfjNoku-18" value="No" style="text;html=1;align=center;verticalAlign=middle;resizable=0;points=[];autosize=1;strokeColor=none;fillColor=none;" vertex="1" parent="1">
          <mxGeometry x="334" y="630" width="40" height="30" as="geometry" />
        </mxCell>
        <mxCell id="ghZcPEIQTWjg8qfjNoku-19" value="Yes" style="text;html=1;align=center;verticalAlign=middle;resizable=0;points=[];autosize=1;strokeColor=none;fillColor=none;" vertex="1" parent="1">
          <mxGeometry x="460" y="630" width="40" height="30" as="geometry" />
        </mxCell>
        <mxCell id="ghZcPEIQTWjg8qfjNoku-20" value="Start/Stop" style="ellipse;whiteSpace=wrap;html=1;fillColor=#d5e8d4;strokeColor=#82b366;" vertex="1" parent="1">
          <mxGeometry x="354" y="810" width="120" height="80" as="geometry" />
        </mxCell>
        <mxCell id="ghZcPEIQTWjg8qfjNoku-24" style="edgeStyle=orthogonalEdgeStyle;rounded=0;orthogonalLoop=1;jettySize=auto;html=1;exitX=0.5;exitY=0;exitDx=0;exitDy=0;entryX=1;entryY=0.5;entryDx=0;entryDy=0;" edge="1" parent="1" source="ghZcPEIQTWjg8qfjNoku-23" target="ghZcPEIQTWjg8qfjNoku-7">
          <mxGeometry relative="1" as="geometry" />
        </mxCell>
        <mxCell id="ghZcPEIQTWjg8qfjNoku-23" value="clear the screen" style="rounded=0;whiteSpace=wrap;html=1;fillColor=#dae8fc;strokeColor=#6c8ebf;" vertex="1" parent="1">
          <mxGeometry x="540" y="630" width="120" height="60" as="geometry" />
        </mxCell>
        <mxCell id="ghZcPEIQTWjg8qfjNoku-32" style="edgeStyle=orthogonalEdgeStyle;rounded=0;orthogonalLoop=1;jettySize=auto;html=1;exitX=0.5;exitY=1;exitDx=0;exitDy=0;entryX=0.5;entryY=0;entryDx=0;entryDy=0;" edge="1" parent="1" source="ghZcPEIQTWjg8qfjNoku-25" target="ghZcPEIQTWjg8qfjNoku-7">
          <mxGeometry relative="1" as="geometry" />
        </mxCell>
        <mxCell id="ghZcPEIQTWjg8qfjNoku-25" value="show logo from another file" style="rounded=0;whiteSpace=wrap;html=1;fillColor=#dae8fc;strokeColor=#6c8ebf;" vertex="1" parent="1">
          <mxGeometry x="354" y="230" width="120" height="60" as="geometry" />
        </mxCell>
        <mxCell id="ghZcPEIQTWjg8qfjNoku-7" value="Prompt user for input of name" style="rounded=0;whiteSpace=wrap;html=1;fillColor=#dae8fc;strokeColor=#6c8ebf;" vertex="1" parent="1">
          <mxGeometry x="354" y="330" width="120" height="60" as="geometry" />
        </mxCell>
      </root>
    </mxGraphModel>
  </diagram>
</mxfile>
